<svg xmlns='http://www.w3.org/2000/svg' viewBox='0 0 362 411'>
  <!-- <path style='fill:#264de4' d='M 362 0 L 329 370 L 181 411 L 33 370 L 0 0 Z' /> -->
  <!-- <path style='fill:#ebebeb' d='M 75 167 L 79 213 L 181 213 L 181 167 Z M 181 75 L 181 75 L 67 75 L 71 121 L 181 121 Z M 181 332 L 181 285 L 181 285 L 130 272 L 127 235 L 102 235 L 81 235 L 88 307 L 181 332 Z M 237 213 L 231 272 L 181 285 L 181 332 L 274 307 L 295 75 L 181 75 L 181 121 L 245 121 L 241 167 L 181 167 L 181 213 Z' /> -->
  <path style="fill:#264de4" d="M 431 115.559 L 398 485.559 L 250 526.559 L 102 485.559 L 69 115.559 Z M 144 282.559 L 148 328.559 L 250 328.559 L 250 282.559 Z M 250 190.559 L 136 190.559 L 140 236.559 L 250 236.559 Z M 250 447.559 L 250 400.559 L 199 387.559 L 196 350.559 L 150 350.559 L 157 422.559 Z M 306 328.559 L 300 387.559 L 250 400.559 L 250 447.559 L 343 422.559 L 364 190.559 L 250 190.559 L 250 236.559 L 314 236.559 L 310 282.559 L 250 282.559 L 250 328.559 Z"></path>
</svg>